<svg viewBox="0 0 1024 1176.463" xmlns="http://www.w3.org/2000/svg"><path d="m264.99 552.108c.287-2.066 2.04-3.64 4.163-3.64h.08-.003c1.328.052 2.55.463 3.586 1.138l-.027-.017c70.368 44.34 155.933 70.706 247.647 70.858h.04c68.606-.436 133.523-15.76 191.833-42.897l-2.846 1.19c1.165-.7 2.57-1.116 4.073-1.116 4.414 0 7.992 3.578 7.992 7.992 0 2.97-1.622 5.562-4.027 6.94l-.04.02c-55.934 41.706-126.41 66.774-202.738 66.782h-.002c-96.548-.053-184.003-38.94-247.602-101.883l.03.03c-1.095-.996-1.867-2.33-2.152-3.835l-.007-.043zm407.244 6.878c14.82-10.237 33.17-16.352 52.95-16.352.926 0 1.85.013 2.77.04l-.135-.003c1.608-.17 3.475-.266 5.365-.266 10.244 0 19.822 2.85 27.985 7.8l-.24-.135c.474 3.82.744 8.246.744 12.733 0 30.04-12.122 57.25-31.74 77.006l.005-.007c-4.48 4.08-8.798 1.88-6.8-3.48 6.64-17.674 21.435-57.422 14.397-67.06-6.998-9.676-46.307-4.597-63.98-2.318-2.72.32-4.28-.8-4.48-2.44v-.92c.416-1.94 1.563-3.556 3.132-4.58zm273.68-75.418q19.073 0 19.073-29.112c0-19.315-6.4-28.952-19.072-28.952q-19.072 0-19.072 28.952c-.003 19.434 6.396 29.112 19.072 29.112zm0 20.554c-.72.042-1.56.066-2.41.066-12.288 0-23.4-5.044-31.374-13.175l-.007-.007c-7.62-8.936-12.257-20.62-12.257-33.386 0-1.113.035-2.218.105-3.314l-.007.15c-.058-.917-.09-1.988-.09-3.067 0-12.746 4.634-24.408 12.31-33.395l-.06.07c8.885-8.108 20.758-13.075 33.79-13.075s24.907 4.967 33.83 13.112l-.038-.035c7.615 8.915 12.248 20.576 12.248 33.32 0 1.08-.033 2.15-.1 3.214l.008-.145c.062.94.097 2.038.097 3.145 0 12.772-4.634 24.46-12.312 33.478l.06-.073c-7.98 8.138-19.092 13.182-31.38 13.182-.848 0-1.69-.024-2.523-.07l.116.004zm-97.65-80.097c-11.397 0-17.996 7.04-19.755 21.194 4.547.916 9.776 1.44 15.127 1.44.25 0 .497 0 .745-.002h-.038c.516.04 1.117.06 1.723.06 4.185 0 8.123-1.058 11.56-2.923l-.128.064c2.492-1.752 4.1-4.615 4.1-7.854 0-.234-.007-.466-.024-.695l.002.032c0-7.598-4.44-11.357-13.316-11.357zm-2.52 38.79c-.37.006-.81.01-1.248.01-5.805 0-11.44-.732-16.814-2.112l.468.102c.038 6.747 2.78 12.847 7.198 17.275 4.557 3.3 10.262 5.28 16.428 5.28.762 0 1.517-.03 2.264-.09l-.1.007h.268c3.32 0 6.583-.232 9.777-.682l-.368.042c5.555-.852 10.336-1.91 15-3.246l-.844.208.88-.08c2 0 3 1.4 3 4.12v8.277c.014.18.023.392.023.606 0 1.254-.305 2.436-.844 3.477l.02-.042c-.794.955-1.838 1.676-3.032 2.066l-.047.014c-8.06 3.19-17.4 5.04-27.17 5.04-.15 0-.297 0-.445-.002h.023c-.884.062-1.917.098-2.96.098-11.974 0-22.85-4.698-30.888-12.35l.018.016c-7.417-8.463-11.94-19.623-11.94-31.84 0-1.122.037-2.236.112-3.34l-.008.15c-.058-.926-.092-2.01-.092-3.1 0-12.81 4.598-24.55 12.235-33.653l-.066.08c7.87-8.25 18.95-13.38 31.225-13.38.832 0 1.66.024 2.48.07l-.115-.005c.677-.043 1.468-.067 2.265-.067 8.95 0 17.18 3.084 23.687 8.246l-.08-.06c5.76 5 9.38 12.33 9.38 20.507 0 .368-.008.735-.023 1.1v-.053c.023.382.036.83.036 1.28 0 7.902-3.956 14.88-9.996 19.064l-.077.05c-7.522 4.417-16.567 7.026-26.222 7.026-1.185 0-2.36-.04-3.527-.117l.158.008zm-103.488 20.393c6.235-.04 12.017-1.947 16.824-5.19l-.108.07v-48.384c-4.957-2.872-10.907-4.567-17.252-4.567-.26 0-.522.003-.782.01l.04-.002c-.293-.02-.634-.03-.978-.03-5.56 0-10.454 2.85-13.302 7.168l-.037.06c-3.032 5.524-4.816 12.104-4.816 19.1 0 .99.036 1.972.106 2.944l-.008-.13c-.062.82-.097 1.776-.097 2.74 0 7.023 1.876 13.608 5.155 19.28l-.1-.186c3.226 4.364 8.35 7.16 14.13 7.16.43 0 .857-.015 1.28-.045l-.057.003zm-8.72 20.152c-.24.006-.523.01-.807.01-7.368 0-14.2-2.293-19.822-6.204l.114.075c-5.913-4.283-10.503-10.057-13.262-16.775l-.094-.258c-2.942-7.087-4.65-15.318-4.65-23.948 0-.44.003-.875.012-1.31v.064c-.047-.86-.073-1.867-.073-2.88 0-12.58 4.045-24.215 10.904-33.676l-.116.167c6.312-8.327 16.21-13.65 27.353-13.65.35 0 .702.005 1.05.016h-.05c.245-.006.534-.01.824-.01 9.104 0 17.482 3.105 24.135 8.312l-.086-.065v-42.865c-.015-.14-.022-.3-.022-.463 0-1.192.415-2.286 1.11-3.146l-.01.01c.848-.634 1.917-1.016 3.074-1.016.143 0 .284.006.424.017h-.018 17.435c.257-.064.553-.1.856-.1 2.084 0 3.775 1.692 3.775 3.777 0 .327-.042.644-.12.947l.006-.027v126.404c.016.145.025.314.025.485 0 1.133-.385 2.176-1.032 3.005l.008-.01c-.796.712-1.854 1.147-3.013 1.147-.178 0-.354-.01-.527-.03l.02.002h-14.554c-.098.006-.213.01-.33.01-1.13 0-2.18-.348-3.047-.942l.017.012c-.88-.8-1.497-1.873-1.715-3.086l-.005-.033-1.08-4.2c-6.817 6.347-15.99 10.24-26.07 10.24-.226 0-.45 0-.676-.005h.035zm-77.898-1.997c-.116.01-.25.016-.387.016-1.168 0-2.237-.43-3.056-1.142l.006.005c-.71-.806-1.14-1.87-1.14-3.036 0-.156.007-.31.022-.462l-.002.02v-84.457c-.014-.137-.02-.296-.02-.456 0-1.2.43-2.298 1.146-3.15l-.006.007c.833-.612 1.88-.98 3.01-.98.15 0 .3.008.448.02h-.02 17.436c.158-.02.342-.03.528-.03 1.146 0 2.2.388 3.043 1.037l-.012-.01c.62.843.99 1.9.99 3.045 0 .196-.01.39-.032.58l.003-.024v84.416c.014.14.022.306.022.472 0 1.13-.368 2.176-.992 3.02l.01-.013c-.816.714-1.892 1.15-3.07 1.15-.186 0-.37-.01-.55-.032l.02.003zm8.718-108.09c-.214.01-.466.017-.72.017-3.975 0-7.606-1.476-10.374-3.91l.018.014c-2.6-2.704-4.2-6.384-4.2-10.437s1.6-7.733 4.205-10.442l-.005.005c3.016-2.393 6.878-3.84 11.077-3.84s8.06 1.447 11.114 3.868l-.036-.028c2.575 2.714 4.16 6.39 4.16 10.437s-1.585 7.723-4.166 10.444l.006-.006c-2.75 2.42-6.382 3.895-10.358 3.895-.253 0-.504-.007-.754-.02l.035.002zm-80.776 108.09c-.09.003-.195.005-.3.005-.967 0-1.895-.163-2.76-.464l.06.018c-.806-.32-1.48-.828-1.992-1.47l-.007-.01c-.61-.816-1.124-1.755-1.494-2.763l-.024-.077-31.07-81.576-.92-2.52c-.215-.593-.345-1.278-.36-1.992v-.007c0-1.88 1.2-2.8 3.638-2.8h18.155c.256-.04.55-.065.85-.065 2.825 0 5.156 2.11 5.506 4.838l.004.03 18.714 64.86 19.072-64.862c.317-1.463 1.054-2.72 2.078-3.673l.004-.004c1.053-.69 2.344-1.1 3.73-1.1.194 0 .385.007.574.023l-.025-.002h17.596c2.44 0 3.64.88 3.64 2.72-.015.72-.146 1.406-.375 2.044l.015-.045-.88 2.598-31.07 81.536c-.41 1.07-.936 1.995-1.578 2.825l.02-.026c-.49.65-1.12 1.166-1.85 1.507l-.03.014c-.774.264-1.666.417-2.593.417-.185 0-.37-.005-.55-.017h.024zm-117.888-77.817c-11.677 0-18.395 7.197-20.234 21.594 4.64.944 9.976 1.484 15.437 1.484.28 0 .56 0 .84-.004h-.042c.55.043 1.19.068 1.836.068 4.26 0 8.27-1.077 11.77-2.973l-.13.065c2.564-1.788 4.22-4.724 4.22-8.046 0-.236-.007-.47-.024-.703l.002.032q0-11.576-13.676-11.556zm-2.56 39.588c-.33.005-.716.008-1.105.008-6.008 0-11.846-.732-17.428-2.112l.496.104c.053 6.882 2.87 13.096 7.397 17.594 4.677 3.354 10.515 5.363 16.822 5.363.78 0 1.55-.03 2.314-.09l-.102.006h.244c3.425 0 6.796-.233 10.097-.683l-.385.043c5.686-.878 10.575-1.965 15.346-3.333l-.87.213.92-.08q3.12 0 3.12 4.2v8.436c.015.182.024.395.024.61 0 1.278-.304 2.486-.844 3.554l.02-.045c-.825.98-1.91 1.718-3.15 2.108l-.05.013c-8.255 3.243-17.816 5.123-27.815 5.123-.174 0-.348 0-.522-.002h.027c-.927.068-2.01.106-3.1.106-12.253 0-23.387-4.79-31.63-12.6l.02.02c-7.616-8.584-12.268-19.95-12.268-32.4 0-1.166.04-2.322.12-3.467l-.008.153c-.057-.925-.09-2.006-.09-3.095 0-13.096 4.72-25.09 12.552-34.374l-.066.08c8.073-8.427 19.417-13.664 31.985-13.664.876 0 1.745.025 2.608.076l-.12-.006c.693-.043 1.502-.068 2.317-.068 9.174 0 17.617 3.126 24.324 8.37l-.087-.065c5.905 5.09 9.62 12.58 9.62 20.935 0 .372-.007.743-.022 1.11l.002-.052c.022.38.034.824.034 1.272 0 8.086-4.068 15.22-10.27 19.47l-.08.052c-7.68 4.526-16.922 7.2-26.787 7.2-1.27 0-2.527-.044-3.773-.13l.168.008zm-175.428-46.386c5.013-3.528 10.753-6.587 16.86-8.9l.536-.178c4.735-1.697 10.198-2.678 15.89-2.678h.11-.005c.648-.06 1.4-.095 2.16-.095 8.862 0 16.625 4.7 20.932 11.745l.06.107c5.043-3.577 10.832-6.618 17.012-8.84l.503-.158c5.028-1.75 10.823-2.76 16.855-2.76h.106-.005c.477-.03 1.035-.047 1.597-.047 7.047 0 13.453 2.743 18.21 7.22l-.014-.014c4.372 4.834 7.048 11.273 7.048 18.338 0 .583-.017 1.162-.053 1.736l.004-.08v64.705c.015.138.023.3.023.464 0 1.14-.384 2.19-1.03 3.026l.01-.012c-.798.693-1.847 1.115-2.994 1.115-.2 0-.397-.013-.59-.038l.023.002h-17.515c-.145.017-.313.026-.484.026-1.133 0-2.17-.42-2.96-1.11l.005.005c-.706-.827-1.135-1.908-1.135-3.09 0-.138.006-.275.017-.41v.017-58.823c0-8.32-3.68-12.476-11.118-12.476-7.253.092-14.078 1.84-20.14 4.88l.266-.12v66.54c.014.14.022.3.022.465 0 1.14-.384 2.19-1.03 3.027l.008-.01c-.803.693-1.858 1.116-3.012 1.116-.207 0-.41-.014-.61-.04l.023.003h-17.47c-.146.017-.314.026-.485.026-1.133 0-2.17-.42-2.96-1.11l.005.005c-.708-.806-1.14-1.87-1.14-3.035 0-.156.007-.31.022-.463l-.002.018v-58.823c0-8.32-3.72-12.476-11.117-12.476-7.337.028-14.244 1.844-20.316 5.033l.242-.116v66.38c.013.14.02.302.02.466 0 1.14-.383 2.19-1.03 3.026l.01-.013c-.797.693-1.846 1.115-2.993 1.115-.2 0-.396-.013-.59-.037l.024.002h-17.52c-.14.015-.3.024-.464.024-1.14 0-2.18-.417-2.98-1.107l.006.005c-.684-.82-1.1-1.885-1.1-3.046 0-.152.008-.303.022-.452v.02-84.493c-.02-.156-.03-.336-.03-.52 0-1.173.42-2.25 1.115-3.088l-.007.007c.82-.636 1.863-1.02 2.996-1.02.155 0 .31.007.46.02h-.018 13.156c.122-.01.265-.018.41-.018 2.38 0 4.354 1.746 4.707 4.03l.003.026zm-73.458-4.396c-.014-.14-.022-.3-.022-.464 0-1.19.415-2.285 1.11-3.145l-.008.01c.84-.635 1.903-1.017 3.054-1.017.15 0 .298.006.444.02l-.02-.002h17.516c.164-.02.354-.03.546-.03 1.14 0 2.19.388 3.024 1.038l-.01-.008c.642.836 1.03 1.898 1.03 3.05 0 .194-.012.385-.033.573l.002-.023v84.492c.013.14.02.3.02.465 0 1.14-.383 2.19-1.03 3.027l.01-.012c-.83.712-1.915 1.146-3.103 1.146-.175 0-.348-.008-.518-.027l.02.002h-17.472c-.11.01-.238.014-.367.014-1.188 0-2.276-.43-3.118-1.14l.007.005c-.685-.82-1.1-1.885-1.1-3.046 0-.153.007-.304.02-.453v.02zm13.316-19.072c-.226.012-.49.018-.757.018-3.97 0-7.6-1.46-10.38-3.875l.02.017c-2.6-2.467-4.215-5.947-4.215-9.805 0-.236.006-.47.018-.704v.034c-.012-.204-.02-.444-.02-.685 0-3.83 1.62-7.28 4.21-9.706l.007-.007c3.03-2.417 6.916-3.88 11.142-3.88 4.204 0 8.07 1.447 11.13 3.868l-.038-.03c2.597 2.457 4.214 5.927 4.214 9.775 0 .233-.006.465-.018.695v-.032c.01.19.016.413.016.637 0 3.868-1.616 7.36-4.21 9.835l-.004.005c-2.76 2.394-6.386 3.853-10.353 3.853-.268 0-.535-.007-.8-.02h.036zm-61.022 28.392c3.86-4.538 8.407-8.347 13.508-11.305l.247-.132c3.97-2.14 8.69-3.4 13.703-3.4h2.61c.136-.01.294-.017.454-.017 1.208 0 2.327.38 3.243 1.03l-.018-.012c.69.83 1.108 1.906 1.108 3.08 0 .183-.01.363-.03.54l.002-.022v15.396c.013.134.02.29.02.446 0 1.145-.383 2.2-1.028 3.045l.008-.01c-.816.688-1.88 1.107-3.042 1.107-.182 0-.362-.01-.538-.03l.022.002q-1.642-.008-3.28-.16c-1.235-.1-2.674-.157-4.127-.157-3.96 0-7.825.42-11.547 1.22l.36-.065c-3.875.72-7.308 1.773-10.56 3.163l.323-.122v61.582c.013.14.02.3.02.465 0 1.14-.383 2.19-1.03 3.026l.01-.01c-.815.71-1.89 1.145-3.064 1.145-.175 0-.347-.01-.516-.028l.02.002h-17.47c-.196.033-.42.052-.65.052-2.21 0-4.002-1.792-4.002-4.003 0-.23.02-.455.056-.673l-.003.024v-84.497c-.014-.145-.023-.312-.023-.482 0-1.19.43-2.283 1.147-3.126l-.006.007c.826-.636 1.875-1.02 3.014-1.02.164 0 .325.007.485.022l-.02-.002h13.116c.124-.01.268-.018.414-.018 2.367 0 4.332 1.727 4.702 3.99l.003.027zm-89.895 3.48c-6.602 0-12.774 1.844-18.028 5.044l.153-.087v48.22c4.977 3.113 11.023 4.96 17.5 4.96.132 0 .263 0 .394-.002h-.02c.382.03.827.048 1.276.048 5.635 0 10.63-2.74 13.726-6.96l.033-.046c3.112-5.495 4.947-12.068 4.947-19.07 0-1.03-.04-2.05-.117-3.058l.008.134c.07-.89.108-1.924.108-2.97 0-7.04-1.788-13.66-4.934-19.437l.106.212c-3.146-4.27-8.156-7.01-13.805-7.01-.475 0-.946.018-1.412.056l.062-.004zm-44.507-12.8c-.015-.143-.024-.31-.024-.477 0-1.194.432-2.286 1.15-3.13l-.007.008c.82-.636 1.863-1.02 2.996-1.02.156 0 .31.007.462.02h-.02 13.16c.127-.012.274-.02.422-.02 2.368 0 4.327 1.753 4.652 4.03l.002.026 1.28 4.757c3.693-3.53 8.077-6.372 12.924-8.302l.272-.096c4.68-1.99 10.12-3.15 15.832-3.16h.003c.378-.014.822-.023 1.268-.023 10.828 0 20.468 5.08 26.67 12.986l.055.074c6.475 8.944 10.356 20.134 10.356 32.23 0 1.04-.028 2.075-.085 3.102l.006-.144c.012.435.018.948.018 1.462 0 9.076-1.874 17.714-5.256 25.55l.16-.42c-3.055 7.13-7.805 13.034-13.76 17.39l-.116.082c-5.438 3.856-12.21 6.165-19.52 6.165-.196 0-.39-.002-.586-.005h.03-.23c-5.007 0-9.808-.878-14.258-2.49l.29.09c-4.44-1.51-8.273-3.745-11.558-6.593l.043.036v40.107c.02.165.03.356.03.55 0 1.15-.387 2.213-1.04 3.06l.01-.01c-.85.64-1.924 1.025-3.087 1.025-.18 0-.358-.01-.534-.027l.022.002h-17.435c-.12.01-.26.016-.403.016-1.146 0-2.202-.382-3.05-1.026l.013.01c-.714-.817-1.15-1.892-1.15-3.07 0-.186.012-.37.033-.55l-.002.02z"/></svg>